<?xml version="1.0" encoding="utf-8"?>
<!DOCTYPE svg PUBLIC "-//W3C//DTD SVG 1.1//EN" "http://www.w3.org/Graphics/SVG/1.1/DTD/svg11.dtd">
<svg viewBox="0 0 24 24" 
    xmlns="http://www.w3.org/2000/svg">
    <!--
    This SVG file was taken from https://github.com/Automattic/social-logos under the GPLv3 license and shortened to save some bytes.
    -->
    <symbol viewBox="0 0 24 24" id="facebook">
        <g>
            <path d="M20.007 3H3.993C3.445 3 3 3.445 3 3.993v16.013c0 .55.445.994.993.994h8.62v-6.97H10.27V11.31h2.346V9.31c0-2.325 1.42-3.59 3.494-3.59.993 0 1.847.073 2.096.106v2.43h-1.438c-1.128 0-1.346.537-1.346 1.324v1.734h2.69l-.35 2.717h-2.34V21h4.587c.548 0 .993-.445.993-.993V3.993c0-.548-.445-.993-.993-.993z"/>
        </g>
    </symbol>
    <symbol viewBox="0 0 24 24" id="github">
        <g>
            <path d="M12 2C6.477 2 2 6.477 2 12c0 4.42 2.865 8.166 6.84 9.49.5.09.68-.22.68-.485 0-.236-.008-.866-.013-1.7-2.782.603-3.37-1.34-3.37-1.34-.454-1.156-1.11-1.464-1.11-1.464-.908-.62.07-.607.07-.607 1.004.07 1.532 1.03 1.532 1.03.89 1.53 2.34 1.09 2.91.833.09-.647.348-1.086.634-1.337-2.22-.252-4.555-1.112-4.555-4.944 0-1.09.39-1.984 1.03-2.682-.104-.254-.448-1.27.096-2.646 0 0 .84-.27 2.75 1.025.8-.223 1.654-.333 2.504-.337.85.004 1.705.114 2.504.336 1.91-1.294 2.748-1.025 2.748-1.025.546 1.376.202 2.394.1 2.646.64.7 1.026 1.59 1.026 2.682 0 3.84-2.337 4.687-4.565 4.935.36.307.68.917.68 1.852 0 1.335-.013 2.415-.013 2.74 0 .27.18.58.688.482C19.138 20.16 22 16.416 22 12c0-5.523-4.477-10-10-10z"/>
        </g>
    </symbol>
    <symbol viewBox="0 0 24 24" id="instagram">
        <g>
            <path d="M12 4.622c2.403 0 2.688.01 3.637.052.877.04 1.354.187 1.67.31.42.163.72.358 1.036.673.315.315.51.615.673 1.035.123.317.27.794.31 1.67.043.95.052 1.235.052 3.638s-.01 2.688-.052 3.637c-.04.877-.187 1.354-.31 1.67-.163.42-.358.72-.673 1.036-.315.315-.615.51-1.035.673-.317.123-.794.27-1.67.31-.95.043-1.234.052-3.638.052s-2.688-.01-3.637-.052c-.877-.04-1.354-.187-1.67-.31-.42-.163-.72-.358-1.036-.673-.315-.315-.51-.615-.673-1.035-.123-.317-.27-.794-.31-1.67-.043-.95-.052-1.235-.052-3.638s.01-2.688.052-3.637c.04-.877.187-1.354.31-1.67.163-.42.358-.72.673-1.036.315-.315.615-.51 1.035-.673.317-.123.794-.27 1.67-.31.95-.043 1.235-.052 3.638-.052M12 3c-2.444 0-2.75.01-3.71.054s-1.613.196-2.185.418c-.592.23-1.094.538-1.594 1.04-.5.5-.807 1-1.037 1.593-.223.572-.375 1.226-.42 2.184C3.01 9.25 3 9.555 3 12s.01 2.75.054 3.71.196 1.613.418 2.186c.23.592.538 1.094 1.038 1.594s1.002.808 1.594 1.038c.572.222 1.227.375 2.185.418.96.044 1.266.054 3.71.054s2.75-.01 3.71-.054 1.613-.196 2.186-.418c.592-.23 1.094-.538 1.594-1.038s.808-1.002 1.038-1.594c.222-.572.375-1.227.418-2.185.044-.96.054-1.266.054-3.71s-.01-2.75-.054-3.71-.196-1.613-.418-2.186c-.23-.592-.538-1.094-1.038-1.594s-1.002-.808-1.594-1.038c-.572-.222-1.227-.375-2.185-.418C14.75 3.01 14.445 3 12 3zm0 4.378c-2.552 0-4.622 2.07-4.622 4.622s2.07 4.622 4.622 4.622 4.622-2.07 4.622-4.622S14.552 7.378 12 7.378zM12 15c-1.657 0-3-1.343-3-3s1.343-3 3-3 3 1.343 3 3-1.343 3-3 3zm4.804-8.884c-.596 0-1.08.484-1.08 1.08s.484 1.08 1.08 1.08c.596 0 1.08-.484 1.08-1.08s-.483-1.08-1.08-1.08z"/>
        </g>
    </symbol>
    <symbol viewBox="0 0 24 24" id="linkedin">
        <g>
            <path d="M19.7 3H4.3C3.582 3 3 3.582 3 4.3v15.4c0 .718.582 1.3 1.3 1.3h15.4c.718 0 1.3-.582 1.3-1.3V4.3c0-.718-.582-1.3-1.3-1.3zM8.34 18.338H5.666v-8.59H8.34v8.59zM7.003 8.574c-.857 0-1.55-.694-1.55-1.548 0-.855.692-1.548 1.55-1.548.854 0 1.547.694 1.547 1.548 0 .855-.692 1.548-1.546 1.548zm11.335 9.764h-2.67V14.16c0-.995-.017-2.277-1.387-2.277-1.39 0-1.6 1.086-1.6 2.206v4.248h-2.668v-8.59h2.56v1.174h.036c.357-.675 1.228-1.387 2.527-1.387 2.703 0 3.203 1.78 3.203 4.092v4.71z"/>
        </g>
    </symbol>
    <symbol viewBox="0 0 24 24" id="mail">
        <g>
            <path d="M20 4H4c-1.105 0-2 .895-2 2v12c0 1.105.895 2 2 2h16c1.105 0 2-.895 2-2V6c0-1.105-.895-2-2-2zm0 4.236l-8 4.882-8-4.882V6h16v2.236z"/>
        </g>
    </symbol>
    <symbol viewBox="0 0 24 24" id="twitter-alt">
        <g>
            <path d="M22.23 5.924c-.736.326-1.527.547-2.357.646.847-.508 1.498-1.312 1.804-2.27-.793.47-1.67.812-2.606.996C18.325 4.498 17.258 4 16.078 4c-2.266 0-4.103 1.837-4.103 4.103 0 .322.036.635.106.935-3.41-.17-6.433-1.804-8.457-4.287-.353.607-.556 1.312-.556 2.064 0 1.424.724 2.68 1.825 3.415-.673-.022-1.305-.207-1.86-.514v.052c0 1.988 1.415 3.647 3.293 4.023-.344.095-.707.145-1.08.145-.265 0-.522-.026-.773-.074.522 1.63 2.038 2.817 3.833 2.85-1.404 1.1-3.174 1.757-5.096 1.757-.332 0-.66-.02-.98-.057 1.816 1.164 3.973 1.843 6.29 1.843 7.547 0 11.675-6.252 11.675-11.675 0-.178-.004-.355-.012-.53.802-.578 1.497-1.3 2.047-2.124z"/>
        </g>
    </symbol>
</svg>